<?xml version="1.0" encoding="UTF-8"?>
<svg xmlns="http://www.w3.org/2000/svg" version="1.1" viewBox="0 0 1080 1080">
  <defs>
    <style>
      .cls-1 {
        fill: #0b8043;
      }

      .cls-2 {
        fill: none;
      }
    </style>
  </defs>
  <!-- Generator: Adobe Illustrator 28.6.0, SVG Export Plug-In . SVG Version: 1.2.0 Build 709)  -->
  <g>
    <g id="Layer_1">
      <g>
        <path class="cls-1" d="M569.58,150.24c-110.84-8.91-224.75,29.04-309.54,113.84-60.15,60.15-96.73,134.94-109.73,212.89l70.71-5c9.98-.71,15.48,11.35,8.41,18.42l-83.23,83.23c6.3,78.5,36.11,155.46,89.4,219.45l132.94-132.94c-40.79-58.33-47.96-133.01-21.49-197.07,3.24-7.87,7-15.6,11.28-23.09,2.66-4.68,5.52-9.28,8.58-13.78,7.22-10.66,15.56-20.79,25.01-30.23.8-.8,1.61-1.6,2.43-2.39.34-.34.7-.68,1.05-1.01.42-.41.84-.81,1.27-1.21.78-.73,1.57-1.46,2.35-2.17.48-.45.96-.89,1.46-1.32l.04-.04c.75-.67,1.5-1.33,2.26-1.99.86-.76,1.74-1.51,2.61-2.23.15-.13.3-.25.45-.37.85-.71,1.7-1.41,2.57-2.11.95-.76,1.9-1.52,2.87-2.27h0c.84-.67,1.7-1.32,2.55-1.96.99-.75,2-1.49,3-2.22.63-.46,1.25-.9,1.88-1.35.63-.44,1.25-.89,1.89-1.32.62-.44,1.25-.86,1.88-1.28.34-.23.67-.46,1.02-.68.67-.45,1.33-.89,2-1.32.3-.19.58-.38.87-.57.8-.5,1.57-1,2.36-1.49.21-.14.44-.28.66-.41.73-.45,1.46-.89,2.19-1.33.16-.1.33-.21.5-.31.02-.02.04-.02.05-.04.62-.37,1.25-.73,1.88-1.1.47-.28.96-.55,1.44-.83.62-.36,1.24-.7,1.87-1.05.25-.15.5-.28.76-.42.66-.37,1.31-.73,1.99-1.09.63-.34,1.26-.68,1.9-1.01.03-.02.07-.04.11-.06.84-.44,1.7-.89,2.55-1.31.76-.39,1.51-.76,2.28-1.13.17-.08.33-.16.5-.24.24-.13.47-.24.73-.36.96-.47,1.92-.93,2.88-1.37,1.06-.5,2.14-.98,3.22-1.46,1.15-.51,2.31-1.01,3.47-1.5.92-.38,1.83-.76,2.76-1.14,4.54-1.83,9.14-3.51,13.78-5,2.12-.68,4.24-1.34,6.38-1.95,2.23-.64,4.49-1.25,6.74-1.82,1.12-.28,2.26-.56,3.39-.82,1.13-.26,2.26-.52,3.39-.76,1.14-.25,2.28-.49,3.42-.71,1.13-.23,2.28-.44,3.42-.65,1.14-.21,2.29-.41,3.43-.59,2.29-.37,4.58-.71,6.88-1.01,1.15-.15,2.29-.29,3.45-.42h.02c.1,0,.19-.02.29-.03,1.05-.11,2.1-.22,3.15-.32.12-.02.24-.03.37-.04.85-.08,1.69-.16,2.53-.22.05,0,.08,0,.13,0,.09-.02.18-.02.28-.02.11-.02.22-.02.34-.02.34-.03.68-.05,1.02-.08h.02c.73-.06,1.48-.11,2.22-.15.76-.05,1.51-.09,2.27-.13.47-.03.96-.05,1.43-.07.03,0,.07,0,.1,0,1.05-.04,2.09-.08,3.13-.11.87-.03,1.74-.05,2.62-.05.1,0,.22,0,.33,0,.08,0,.18,0,.27,0,.31,0,.63,0,.95-.02.92,0,1.84,0,2.77,0,1.29,0,2.58.02,3.86.05,1.03.02,2.06.05,3.08.1,1.15.04,2.31.09,3.46.16.03,0,.05,0,.08,0,1.13.06,2.26.14,3.39.22,1.08.07,2.16.15,3.23.24.74.07,1.48.14,2.22.21.07,0,.15.02.22.02.02,0,.03,0,.04,0,.64.06,1.28.12,1.93.2,1.09.11,2.19.24,3.27.38,2.12.27,4.23.56,6.35.89,0,0,.02,0,.02,0,1.15.18,2.29.37,3.42.57.03,0,.06,0,.08,0,1.02.18,2.05.37,3.07.56.06.02.11.02.18.04,1.19.23,2.39.46,3.57.71,1.12.23,2.24.48,3.35.73.96.21,1.92.44,2.87.67,4.7,1.14,9.36,2.44,13.98,3.91,4.51,1.44,9.07,2.55,13.65,3.39,34.69,6.24,70.65-4.79,95.98-30.13l78.79-78.79c-63.99-53.29-140.95-83.1-219.45-89.4Z"/>
        <line class="cls-2" x1="789.03" y1="239.64" x2="710.24" y2="318.43"/>
        <line class="cls-2" x1="368.54" y1="660.13" x2="235.59" y2="793.07"/>
        <line class="cls-2" x1="229.43" y1="490.39" x2="146.2" y2="573.62"/>
        <line class="cls-2" x1="221.02" y1="471.97" x2="150.3" y2="476.97"/>
        <path class="cls-1" d="M789.03,239.64l-78.79,78.79-95.98,30.13c-4.58-.83-9.14-1.95-13.65-3.39-4.62-1.47-9.28-2.77-13.98-3.91-.95-.23-1.9-.45-2.87-.67-1.11-.25-2.23-.5-3.35-.73-1.18-.25-2.38-.48-3.57-.71-.06-.02-.11-.02-.18-.04-1.02-.19-2.04-.37-3.07-.56-.02,0-.05,0-.08,0-1.13-.2-2.27-.39-3.42-.57,0,0-.02,0-.02,0-2.12-.33-4.23-.62-6.35-.89-1.09-.14-2.18-.27-3.27-.38-.64-.08-1.28-.15-1.93-.2,0,0-.02,0-.04,0-.07,0-.15-.02-.22-.02-.73-.08-1.48-.15-2.22-.21-1.07-.09-2.15-.18-3.23-.24-1.12-.08-2.26-.16-3.39-.22-.02,0-.05,0-.08,0-1.15-.07-2.31-.12-3.46-.16-1.02-.05-2.05-.08-3.08-.1-1.28-.03-2.57-.05-3.86-.05-.93,0-1.84,0-2.77,0-.31,0-.63,0-.95.02-.09,0-.18,0-.27,0-.11,0-.23,0-.33,0-.88,0-1.75.02-2.62.05-1.05.02-2.09.07-3.13.11-.03,0-.07,0-.1,0-.47.02-.96.04-1.43.07-.76.04-1.51.08-2.27.13-.74.04-1.48.09-2.22.15h-.02c-.34.02-.69.05-1.02.08-.12,0-.24,0-.34.02-.1,0-.19,0-.28.02-.05,0-.08,0-.13,0-.84.06-1.68.14-2.53.22-.13,0-.25.02-.37.04-1.05.1-2.1.21-3.15.32-.1,0-.19.02-.29.03h-.02c-1.15.13-2.3.27-3.45.42-2.3.3-4.59.63-6.88,1.01-1.15.18-2.29.38-3.43.59-1.14.21-2.29.42-3.42.65-1.14.22-2.28.46-3.42.71-1.13.24-2.26.5-3.39.76-1.13.26-2.26.54-3.39.82-2.26.57-4.51,1.18-6.74,1.82-2.14.61-4.27,1.27-6.38,1.95-4.64,1.49-9.23,3.16-13.78,5-.92.37-1.84.76-2.76,1.14-1.16.49-2.32.99-3.47,1.5-1.08.48-2.16.96-3.22,1.46-.96.44-1.93.9-2.88,1.37-.25.11-.49.23-.73.36-.17.08-.33.16-.5.24-.76.37-1.52.74-2.28,1.13-.86.43-1.71.87-2.55,1.31-.04.02-.08.05-.11.06-.63.33-1.26.67-1.9,1.01-.67.36-1.33.72-1.99,1.09-.26.14-.5.28-.76.42-.63.35-1.25.7-1.87,1.05-.47.28-.96.55-1.44.83-.63.37-1.26.73-1.88,1.1-.02.02-.04.02-.05.04-.18.1-.34.21-.5.31-.73.44-1.46.88-2.19,1.33-.21.14-.44.28-.66.41-.8.49-1.57.99-2.36,1.49-.29.18-.57.37-.87.57-.67.44-1.33.87-2,1.32-.34.22-.68.45-1.02.68-.63.42-1.26.85-1.88,1.28-.63.44-1.26.88-1.89,1.32-.63.44-1.25.89-1.88,1.35-1,.73-2,1.47-3,2.22-.86.64-1.71,1.3-2.55,1.96h0c-.96.76-1.92,1.51-2.87,2.28-.86.7-1.72,1.4-2.57,2.11-.15.12-.31.24-.45.37-.88.73-1.75,1.48-2.61,2.23-.76.66-1.51,1.31-2.26,1.99l-.04.04c-.5.44-.98.87-1.46,1.32-.79.71-1.57,1.44-2.35,2.17-.43.4-.85.8-1.27,1.21-.36.33-.71.67-1.05,1.01-.82.79-1.63,1.58-2.43,2.39-9.44,9.44-17.78,19.57-25.01,30.23l-145.88,45.78-70.71,5c13-77.95,49.58-152.74,109.73-212.89,84.8-84.8,198.7-122.74,309.54-113.84,78.5,6.3,155.46,36.11,219.45,89.4Z"/>
        <path class="cls-1" d="M358.32,439.96c-4.27,7.5-8.03,15.22-11.28,23.09-26.47,64.06-19.3,138.74,21.49,197.07l-132.94,132.94c-53.29-63.99-83.1-140.95-89.4-219.45l83.23-83.23,128.9-50.43Z"/>
        <path class="cls-1" d="M474.22,345.5c2.11-.69,4.24-1.34,6.38-1.95-2.14.61-4.27,1.27-6.38,1.95Z"/>
        <path class="cls-1" d="M480.61,343.55c2.24-.65,4.48-1.25,6.74-1.82-2.26.57-4.51,1.18-6.74,1.82Z"/>
        <path class="cls-1" d="M850.57,589.61l83.23-83.23c-6.3-78.5-36.11-155.46-89.4-219.45l-132.94,132.94c40.79,58.33,47.96,133.01,21.49,197.07-.41.97-.81,1.94-1.23,2.91-.44,1.03-.89,2.06-1.36,3.09-.21.49-.44.98-.67,1.47-.74,1.63-1.51,3.26-2.31,4.88-.31.63-.63,1.28-.96,1.91-.32.66-.66,1.31-1.01,1.97-.27.53-.54,1.05-.82,1.57-.67,1.26-1.35,2.53-2.06,3.78-.29.54-.58,1.05-.89,1.57-.05.11-.11.2-.16.3-.07.11-.13.24-.21.34-.56.99-1.12,1.96-1.7,2.94-2.05,3.42-4.2,6.81-6.47,10.14-.45.67-.9,1.33-1.37,2-.46.66-.93,1.32-1.4,1.98-.46.66-.93,1.31-1.41,1.96-.58.81-1.18,1.61-1.77,2.39-.39.5-.76,1-1.15,1.51-.49.64-.99,1.28-1.5,1.93-.45.57-.9,1.15-1.36,1.71-.12.15-.24.31-.37.47-.44.54-.89,1.09-1.34,1.63-.52.63-1.05,1.26-1.57,1.88-.57.68-1.14,1.35-1.73,2.02-.5.57-.99,1.15-1.51,1.72-1.58,1.78-3.21,3.55-4.86,5.29-1.2,1.26-2.42,2.52-3.66,3.75-.81.81-1.62,1.61-2.44,2.39-1.54,1.49-3.09,2.95-4.67,4.38-.48.45-.96.89-1.46,1.32l-.04.04c-.75.67-1.5,1.33-2.26,1.99-.86.76-1.74,1.51-2.61,2.23-.15.13-.3.25-.45.37-.85.71-1.7,1.41-2.57,2.11-.95.76-1.9,1.52-2.87,2.27h0c-.96.75-1.91,1.49-2.88,2.22-.7.52-1.4,1.05-2.11,1.56-.18.14-.37.27-.56.41-.63.46-1.25.9-1.88,1.35-.62.45-1.25.89-1.89,1.32-.13.08-.26.18-.39.27-.62.44-1.24.86-1.87,1.27-.15.1-.29.2-.44.3-.74.5-1.49.99-2.24,1.48-.28.18-.56.36-.83.54-.89.57-1.77,1.12-2.65,1.67-.03.02-.05.04-.08.05-.11.06-.2.12-.31.18-.57.36-1.16.72-1.74,1.06-.2.12-.41.25-.61.37-.21.14-.44.27-.67.41-.93.55-1.86,1.09-2.79,1.63-1.02.6-2.06,1.18-3.11,1.75-.89.5-1.79.98-2.69,1.45-.34.19-.7.37-1.05.56-.84.44-1.7.89-2.55,1.31-1.05.54-2.12,1.06-3.18,1.57-1.05.52-2.13,1.02-3.2,1.51-1.06.5-2.13.99-3.22,1.46,0,0-.02.02-.04.02-.96.43-1.94.86-2.93,1.26-.17.08-.34.15-.51.22-.91.39-1.83.76-2.76,1.14-2.74,1.11-5.51,2.16-8.29,3.14-.81.29-1.62.58-2.44.85-.82.28-1.64.56-2.47.83-.19.05-.38.12-.57.18-1.01.32-2.02.64-3.03.95-.91.28-1.83.56-2.74.82-.31.1-.63.18-.95.28-.93.27-1.84.53-2.77.77-1.61.44-3.23.86-4.84,1.25-.81.2-1.62.4-2.43.58-1.88.44-3.78.85-5.69,1.24-.53.11-1.06.22-1.61.32-2.87.56-5.74,1.05-8.62,1.48-1.12.18-2.25.34-3.38.49-.54.08-1.07.14-1.61.21-1.24.15-2.48.31-3.72.44-.05,0-.1,0-.16,0-1.21.14-2.42.25-3.65.36-.74.07-1.48.14-2.22.19-1.15.09-2.31.17-3.46.24-3.7.23-7.41.36-11.11.39-.92,0-1.84,0-2.77,0-2.42,0-4.83-.06-7.25-.17-1.05-.03-2.11-.09-3.16-.15-.03,0-.06,0-.08,0-1.13-.06-2.26-.14-3.39-.22-1.82-.12-3.63-.28-5.44-.46-.73-.08-1.46-.15-2.19-.23-1.18-.13-2.37-.28-3.55-.42-.87-.11-1.75-.22-2.63-.35-2.7-.37-5.39-.8-8.08-1.29-.69-.12-1.38-.25-2.07-.39-1.12-.2-2.22-.42-3.33-.66-.42-.08-.83-.17-1.24-.26-.78-.17-1.56-.34-2.33-.51-1.97-.44-3.94-.92-5.91-1.43-.44-.11-.89-.23-1.33-.35-.71-.19-1.43-.37-2.14-.58-.73-.19-1.44-.39-2.15-.6-1.42-.4-2.84-.83-4.26-1.28-.38-.11-.75-.23-1.12-.34-4.51-1.44-9.07-2.55-13.65-3.38-34.68-6.25-70.64,4.79-95.97,30.12l-78.79,78.79c63.99,53.29,140.95,83.1,219.45,89.4,110.84,8.91,224.75-29.04,309.54-113.84,60.15-60.15,96.73-134.94,109.73-212.89l-70.71,5c-9.98.7-15.48-11.35-8.41-18.42Z"/>
        <line class="cls-2" x1="369.76" y1="761.57" x2="290.97" y2="840.36"/>
        <line class="cls-2" x1="711.46" y1="419.87" x2="844.41" y2="286.92"/>
        <line class="cls-2" x1="933.8" y1="506.38" x2="850.57" y2="589.61"/>
        <line class="cls-2" x1="929.7" y1="603.03" x2="858.98" y2="608.03"/>
        <path class="cls-1" d="M844.41,286.93c53.29,63.99,83.1,140.95,89.4,219.45l-83.23,83.23-129.1,50.78c.05-.1.11-.19.16-.3.31-.52.6-1.04.89-1.57.71-1.25,1.4-2.52,2.06-3.78.28-.52.55-1.04.82-1.57.35-.66.69-1.31,1.01-1.97.33-.63.65-1.28.96-1.91.8-1.62,1.57-3.25,2.31-4.88.23-.49.46-.98.67-1.47.47-1.03.92-2.06,1.36-3.09.42-.97.83-1.94,1.23-2.91,26.47-64.06,19.3-138.74-21.49-197.07l132.94-132.94Z"/>
        <path class="cls-1" d="M929.7,603.03c-13,77.95-49.58,152.74-109.73,212.89-84.8,84.8-198.7,122.74-309.54,113.84-78.5-6.3-155.46-36.11-219.45-89.4l78.79-78.79,95.97-30.12c4.59.83,9.14,1.94,13.65,3.38.37.11.74.24,1.12.34,1.41.45,2.84.88,4.26,1.28.71.21,1.43.41,2.15.6.71.21,1.43.39,2.14.58.44.12.89.24,1.33.35,1.96.51,3.94.99,5.91,1.43.77.18,1.55.34,2.33.51.41.09.82.18,1.24.26,1.11.24,2.22.46,3.33.66.69.14,1.38.27,2.07.39,2.69.49,5.38.92,8.08,1.29.88.13,1.76.24,2.63.35,1.18.15,2.37.29,3.55.42.73.08,1.45.15,2.19.23,1.81.18,3.62.34,5.44.46,1.12.08,2.26.16,3.39.22.02,0,.05,0,.08,0,1.05.05,2.1.11,3.16.15,2.42.11,4.82.16,7.25.17.93,0,1.84,0,2.77,0,3.7-.03,7.41-.16,11.11-.39,1.15-.08,2.31-.15,3.46-.24.74-.05,1.48-.12,2.22-.19,1.22-.11,2.44-.22,3.65-.36.06,0,.11,0,.16,0,1.24-.14,2.48-.29,3.72-.44.54-.07,1.08-.13,1.61-.21,1.13-.15,2.26-.31,3.38-.49,2.88-.44,5.76-.92,8.62-1.48.54-.1,1.08-.21,1.61-.32,1.9-.39,3.81-.8,5.69-1.24.81-.18,1.62-.38,2.43-.58,1.61-.39,3.23-.81,4.84-1.25.93-.24,1.85-.5,2.77-.77.32-.09.63-.18.95-.28.92-.26,1.83-.54,2.74-.82,1.01-.31,2.02-.63,3.03-.95.18-.06.37-.13.57-.18.83-.28,1.65-.55,2.47-.83.81-.28,1.63-.56,2.44-.85,2.78-.98,5.55-2.03,8.29-3.14.93-.37,1.85-.75,2.76-1.14.18-.07.34-.15.51-.22.99-.41,1.96-.83,2.93-1.26.02,0,.03-.02.04-.02,1.09-.47,2.16-.96,3.22-1.46,1.07-.49,2.14-.99,3.2-1.51,1.06-.51,2.13-1.04,3.18-1.57.86-.43,1.71-.87,2.55-1.31.35-.18.7-.37,1.05-.56.9-.47,1.8-.96,2.69-1.45,1.05-.57,2.09-1.15,3.11-1.75.93-.54,1.86-1.08,2.79-1.63.23-.14.45-.27.67-.41.21-.11.41-.24.61-.37.57-.34,1.16-.7,1.74-1.06.11-.06.2-.12.31-.18.03-.02.05-.04.08-.05.89-.55,1.77-1.11,2.65-1.67.28-.18.56-.36.83-.54.75-.49,1.5-.98,2.24-1.48.15-.1.29-.2.44-.3.63-.41,1.25-.83,1.87-1.27.13-.08.26-.18.39-.27.63-.44,1.27-.87,1.89-1.32.63-.44,1.25-.89,1.88-1.35.18-.14.37-.27.56-.41.71-.51,1.41-1.04,2.11-1.56.97-.73,1.93-1.47,2.88-2.21h0c.96-.76,1.92-1.51,2.87-2.28.86-.7,1.72-1.4,2.57-2.11.15-.12.31-.24.45-.37.88-.73,1.75-1.48,2.61-2.23.76-.66,1.51-1.31,2.26-1.99l.04-.04c.5-.44.98-.87,1.46-1.32,1.58-1.43,3.13-2.89,4.67-4.38.82-.79,1.63-1.58,2.44-2.39,1.24-1.24,2.46-2.49,3.66-3.75,1.65-1.74,3.28-3.51,4.86-5.29.51-.57,1.01-1.15,1.51-1.72.59-.67,1.15-1.34,1.73-2.02.53-.62,1.05-1.25,1.57-1.88.45-.54.9-1.09,1.34-1.63.13-.16.25-.31.37-.47.46-.57.91-1.14,1.36-1.71.5-.64,1.01-1.28,1.5-1.93.4-.5.76-1.01,1.15-1.51.59-.79,1.18-1.58,1.77-2.39.48-.65.96-1.31,1.41-1.96.47-.66.94-1.32,1.4-1.98.47-.67.92-1.33,1.37-2l145.88-45.78,70.71-5Z"/>
      </g>
      <path class="cls-1" d="M540,30c68.86,0,135.65,13.48,198.51,40.07,60.73,25.69,115.27,62.46,162.12,109.31,46.85,46.85,83.62,101.39,109.31,162.12,26.59,62.86,40.07,129.64,40.07,198.51s-13.48,135.65-40.07,198.51c-25.69,60.73-62.46,115.27-109.31,162.12-46.85,46.85-101.39,83.62-162.12,109.31-62.86,26.59-129.64,40.07-198.51,40.07s-135.65-13.48-198.51-40.07c-60.73-25.69-115.27-62.46-162.12-109.31-46.85-46.85-83.62-101.39-109.31-162.12-26.59-62.86-40.07-129.64-40.07-198.51s13.48-135.65,40.07-198.51c25.69-60.73,62.46-115.27,109.31-162.12,46.85-46.85,101.39-83.62,162.12-109.31,62.86-26.59,129.64-40.07,198.51-40.07M540,0C241.77,0,0,241.77,0,540s241.77,540,540,540,540-241.77,540-540S838.23,0,540,0h0Z"/>
    </g>
  </g>
</svg>