<?xml version="1.0" encoding="UTF-8"?>
<svg id="Layer_1" xmlns="http://www.w3.org/2000/svg" viewBox="0 0 512 512">
  <defs>
    <style>
      .cls-1 {
        fill: #fff;
      }

      .cls-2 {
        fill: #06f;
      }
    </style>
  </defs>
  <rect class="cls-1" x="0" y="0" width="512" height="512" rx="128" ry="128"/>
  <g>
    <path class="cls-2" d="M83.02,229.3l-.02.16-.03.21c-.05.3-.09.6-.13.9v.05s-.01,0-.01,0c0,.06-.01.12-.02.18-.02.18-.05.36-.07.54l-.07.47v.08s-.03.14-.03.14h0s0,.08,0,.08v.07s-.02.03-.02.03l-.02.14v.11s-.02.02-.02.02l-.02.07c-.08.57-.15,1.16-.23,1.74-.06.51-.12,1.04-.18,1.57-.02.2-.04.4-.07.6v.04s0,.01,0,.01c-.08.63-.14,1.27-.21,1.9-.05.47-.08.95-.13,1.43v.05l-.05.47c-.02.19-.03.37-.05.56-.02.2-.03.4-.05.6-.01.1-.02.2-.03.31-.01.15-.03.3-.04.46-.01.19-.03.38-.04.57,0,.09-.01.18-.02.27-.06.65-.1,1.33-.14,2.11h0s0,.02,0,.02v.03c-.02.33-.03.66-.05.99-.02.35-.04.69-.05,1.04v.03s0,.03,0,.03v.08s0,.08,0,.11c0,.08,0,.15-.01.24v.1h0s0,.02,0,.02v.11c-.03.39-.04.78-.06,1.18,0,.17-.01.33-.02.5-.03.72-.05,1.38-.06,2.07,0,.1,0,.22,0,.33v.24c-.02.57-.03,1.12-.03,1.69v.32s0,.14,0,.14h0v.59c0,.17,0,.34,0,.51,0,.12,0,.24,0,.36s0,.24,0,.36c0,.17,0,.33,0,.5v1.03c.5,33.28,13.83,64.5,37.55,87.89,23.74,23.42,55.18,36.31,88.54,36.31,5.3,0,10.56-.35,15.76-.99,2.36-.29,4.7-.63,7.03-1.05,0,0,0,0,0,0-17.26-10.43-32.19-24.4-43.92-41.21-4.25-6.09-8-12.45-11.24-19.03-.73-1.48-1.42-2.98-2.1-4.48-.07-.16-.16-.32-.23-.49-8.18-18.38-12.43-38.33-12.43-58.83,0-29.82,8.99-58.47,26-82.84,3.91-5.6,8.18-10.87,12.77-15.82,14.91-16.08,33.23-28.56,53.86-36.55,6.25-2.42,12.63-4.39,19.12-5.91,10.81-2.53,21.91-3.82,33.18-3.82,26.34,0,51.64,7,73.74,20.1,0,0,0,0-.01-.01-.01-.01-.02-.03-.04-.04-.2-.2-.41-.41-.62-.61-.27-.27-.55-.53-.83-.8-.09-.08-.17-.16-.26-.25h0s-.07-.07-.07-.07l-.02-.03-.04-.05c-.24-.23-.51-.47-.76-.71-.27-.25-.52-.5-.81-.76l-.03-.03-.03-.03-.07-.06s-.09-.08-.14-.13c-.31-.29-.61-.57-.92-.85l-.06-.06-.4-.37c-.07-.06-.13-.12-.2-.18-.45-.41-.89-.81-1.33-1.2-.51-.45-1-.88-1.49-1.3-.15-.14-.32-.27-.48-.41-.33-.29-.67-.58-1.02-.86l-.68-.57-.37-.31v-.02s-.28-.22-.28-.22l-.14-.12c-.4-.34-.79-.66-1.19-.97l-.06-.05-.03-.02-.04-.03-.05-.04c-.29-.24-.59-.48-.89-.72h0s-.03-.03-.03-.03h-.02s-.02-.02-.02-.02c-.94-.76-1.93-1.53-2.92-2.29l-.02-.02-.03-.02c-.26-.21-.53-.41-.8-.61l-.32-.25-.2-.15s-.09-.07-.14-.1c-.02-.01-.03-.02-.04-.03h-.01s-.03-.04-.03-.04l-.03-.02-.05-.03-.55-.41-.2-.15-.75-.56c-.08-.06-.16-.11-.24-.17-.14-.1-.29-.21-.43-.31l-.3-.22h0s-.02-.02-.02-.02h-.02s-.02-.02-.02-.02c-.3-.22-.59-.43-.89-.64-.07-.05-.14-.1-.21-.15l-.08-.06-.08-.06c-.73-.51-1.45-1.02-2.19-1.53h-.02s0-.01,0-.01h-.03c-.33-.24-.66-.47-.99-.69-.08-.05-.16-.11-.24-.16h0s-.03-.03-.03-.03c-.49-.32-.98-.65-1.48-.97-.03-.02-.05-.04-.08-.05h0s-.04-.03-.04-.03l-.05-.03c-.11-.07-.21-.14-.32-.21-.36-.23-.71-.46-1.07-.69l-.06-.04h0s-.05-.04-.05-.04c-.53-.35-1.06-.68-1.61-1.02l-.06-.03h0s-.08-.05-.08-.05c-.55-.35-1.1-.7-1.67-1.03l-.89-.54h0c-.14-.09-.27-.17-.41-.25-.17-.1-.34-.2-.51-.3l-.03-.02h0s0,0,0,0l-.02-.02c-.1-.06-.21-.12-.31-.18-.4-.23-.8-.46-1.21-.7l-.3-.18c-.14-.08-.28-.16-.41-.24-.37-.22-.74-.43-1.11-.64-.04-.02-.07-.04-.11-.06-2.48-1.39-5.01-2.72-7.56-3.99-.06-.03-.11-.06-.17-.09h-.03s-.02-.02-.02-.02l-.06-.03c-.56-.29-1.12-.57-1.69-.83l-1.5-.72h0s-.09-.05-.13-.07c-.03-.01-.06-.03-.09-.04l-.04-.02h-.01s-.02-.01-.02-.01c-1.77-.84-3.4-1.56-4.97-2.23l-.04-.02-.03-.02h-.04s-.04-.03-.04-.03c-.38-.17-.75-.33-1.14-.49l-.16-.07-.11-.05h-.02s0-.02,0-.02l-.68-.28c-.24-.1-.48-.2-.73-.3-.11-.05-.22-.09-.34-.14-1.69-.68-3.07-1.22-4.34-1.69l-.76-.28-.11-.04-.8-.3c-2.14-.77-4.36-1.54-6.59-2.24h-.03s-.03-.02-.03-.02c-.04-.01-.07-.02-.11-.03-.42-.14-.85-.27-1.27-.4-.44-.14-.87-.27-1.31-.4-.26-.08-.52-.16-.78-.24-.97-.28-1.89-.55-2.78-.79h-.04s-.01,0-.01,0h-.02s-.03-.02-.03-.02c-.12-.03-.24-.07-.36-.1-.19-.05-.39-.1-.58-.16l-.12-.03-.17-.05c-1.84-.49-3.72-.94-5.6-1.37-1.11-.26-2.21-.5-3.33-.74-1.88-.4-3.76-.8-5.65-1.14-.71-.12-1.4-.25-2.11-.36h-.04s-.03,0-.03,0h-.02c-.7-.12-1.4-.24-2.11-.34-.33-.05-.65-.1-.98-.15-.41-.06-.82-.13-1.22-.18-2.01-.28-4.04-.53-6.07-.74-3.92-.41-7.87-.68-11.82-.83-2.2-.08-4.4-.13-6.59-.13-3.7,0-7.41.13-11.12.37-.39.02-.78.03-1.17.06-4.09.28-8.17.71-12.2,1.27-.72.1-1.45.22-2.17.32-.02,0-.04,0-.06.01,0,0-.02,0-.03,0h0L83.03,229.25v.05Z"/>
    <path class="cls-2" d="M429.01,282.49l.02-.13.02-.14c.04-.24.08-.5.1-.74v-.06s.02-.09.02-.09l.02-.1c.05-.32.1-.65.14-.97l.02-.22.04-.22c.02-.1.03-.21.05-.3l.13-1.09.1-.75c.09-.73.17-1.4.24-2.08v-.09c.08-.65.15-1.26.21-1.88.05-.52.1-1.01.14-1.49v-.03l.05-.47c.04-.35.07-.69.09-1.03v-.13s.02-.13.02-.13c.05-.44.08-.89.1-1.33v-.18c.07-.64.11-1.32.15-2.08v-.05c.05-.69.08-1.36.12-2.01v-.2s0-.27,0-.27v-.27c.05-.56.07-1.12.08-1.69.03-.76.05-1.49.07-2.21v-.09s0-.33,0-.33c0-.52.02-1.05.02-1.57v-.69c.02-.45.02-.9.02-1.35,0-.47,0-.95,0-1.41v-.49c-.5-33.28-13.83-64.5-37.55-87.89-23.75-23.42-55.19-36.31-88.55-36.31-7.7,0-15.32.69-22.79,2.04,17.26,10.43,32.2,24.41,43.92,41.22,17.01,24.37,26,53.02,26,82.84s-8.99,58.47-26,82.84c-16.61,23.81-39.65,41.91-66.63,52.36-16.66,6.45-34.25,9.73-52.29,9.73-26.34,0-51.63-7-73.74-20.09l.04.04.1.09.09.1c.1.11.21.22.32.31l.35.34c.28.28.56.56.86.83l.05.05.06.05c.47.45,1.03.99,1.57,1.49l.09.07.08.08c.36.34.71.68,1.08,1.01l.03.03.04.03c.63.58,1.27,1.16,1.93,1.73l.04.03.04.04c.42.38.85.75,1.28,1.13l.08.07.28.24h.03s1.24,1.08,1.24,1.08l.25.22.06.06c.34.28.67.57,1.02.84l.13.1.12.11c.29.25.62.52.99.81l.12.09.11.09c.26.23.53.44.78.63l.09.07.08.07c.93.75,1.9,1.51,2.88,2.25.21.17.42.33.63.49.24.19.48.37.72.55.14.1.27.2.4.3l.24.17c.39.29.78.58,1.18.88l.37.26c.2.14.4.28.59.42l.08.06.09.06c.28.22.58.42.88.63l.32.23c.72.51,1.45,1.02,2.18,1.53l.07.04.07.05c.32.23.65.44.97.66l.24.16.81.54.86.57c.43.28.89.58,1.35.87.46.3.91.58,1.36.87h1.11l1.99,1.89c.3.19.61.38.92.56.6.36,1.22.71,1.83,1.05l.06.04.06.04c.48.28.96.55,1.45.82,2.58,1.46,5.2,2.84,7.82,4.13.58.29,1.16.57,1.73.85.09.05.17.09.25.13.55.25,1.08.51,1.63.77,1.65.77,3.33,1.53,4.98,2.23h.04s.04.03.04.03c.41.18.83.36,1.23.53.12.05.25.1.4.17.55.23,1.09.45,1.65.68,1.35.55,2.81,1.11,4.33,1.69l.05.02.05.02c.47.18.94.36,1.42.53l.07.02.06.02c2.23.82,4.44,1.57,6.57,2.24l.08.03.07.02c.43.15.86.28,1.29.42h.07s.06.03.06.03c.65.21,1.3.41,1.95.6l.55.16c.78.22,1.55.44,2.33.66.43.12.82.23,1.2.33l.09.02c4.82,1.3,9.73,2.39,14.57,3.25l.06.02h.06c.58.11,1.22.23,2.01.36h.08c.78.14,1.43.24,2.03.33h.09s.09.03.09.03c.68.11,1.37.21,2.04.3h.06c8.06,1.13,16.29,1.7,24.47,1.7s16.43-.57,24.49-1.69l.17-.03c.65-.09,1.29-.18,1.93-.28l.09-.02h.07s146.23-146.24,146.23-146.24c0-.09.02-.17.04-.25Z"/>
  </g>
</svg>